<?xml version="1.0" encoding="utf-8"?>
<!-- Generator: Adobe Illustrator 22.0.1, SVG Export Plug-In . SVG Version: 6.00 Build 0)  -->
<svg version="1.1" id="Layer_1" xmlns="http://www.w3.org/2000/svg" xmlns:xlink="http://www.w3.org/1999/xlink" x="0px" y="0px"
	 viewBox="0 0 251 101" style="enable-background:new 0 0 251 101;" xml:space="preserve">
<g>
	<path d="M46.3,46.2H34l-3-8.1H15.9L13,46.2H0.8L17,2.6l13.1-0.1L46.3,46.2z M28.1,29.3L23.4,16l-4.7,13.4H28.1z"/>
	<polygon points="73.1,46.2 47.9,46.2 47.9,2.5 59.3,2.5 59.3,36.3 73.1,36.3 	"/>
	<g>
		<path d="M109.4,33.1c0,4.3-1.4,7.6-4.3,9.9c-2.6,2.2-6.1,3.3-10.4,3.3l-18.8-0.1V2.5H94c3.5,0,6.4,0.9,8.7,2.6
			c2.4,1.9,3.7,4.7,3.7,8.2c0,4.3-1.9,7.4-5.8,9.3C106.4,23.9,109.4,27.4,109.4,33.1 M95.3,14.9c0-2.7-1.7-4-5.1-4H87v8.4h3.4
			C93.6,19.3,95.3,17.9,95.3,14.9 M98,32.6c0-3.1-2-4.7-5.9-4.7H87v9.6h5.3C96.1,37.5,98,35.9,98,32.6"/>
		<polygon points="137.3,46.2 111.7,46.2 111.7,2.5 137,2.5 137,12.4 123.1,12.4 123.1,19.5 136.2,19.5 136.2,29.2 123.1,29.2 
			123.1,36.5 137.3,36.5 		"/>
		<path d="M176.4,46.2h-13.6l-9.2-15.4h-2.3v15.4h-11.4V2.5h17.4c4.3,0,7.8,1.2,10.6,3.5c2.9,2.5,4.3,5.9,4.3,10.2
			c0,6.1-2.5,10.1-7.5,11.9L176.4,46.2z M160.6,16.7c0-3.7-1.9-5.5-5.8-5.5h-3.8v11h3.7C158.7,22.2,160.6,20.4,160.6,16.7"/>
		<polygon points="203.3,12.9 194.3,12.9 194.3,46.3 182.4,46.3 182.4,12.9 173.4,12.9 173.4,2.6 203.3,2.6 		"/>
		<path d="M250.5,23.9c0,7-2.3,12.7-7,17.3c-4.6,4.4-10.3,6.6-17.1,6.6c-7,0-12.8-2.2-17.3-6.7c-4.5-4.4-6.8-10-6.8-16.8
			c0-6.8,2.4-12.5,7.1-16.9c4.6-4.3,10.3-6.4,17.1-6.4c6.8,0,12.5,2.2,17.2,6.7C248.2,12,250.5,17.4,250.5,23.9 M239,24.1
			c0-3.5-1.2-6.5-3.6-8.9c-2.4-2.4-5.4-3.6-9-3.6c-3.6,0-6.6,1.2-9,3.7c-2.4,2.4-3.5,5.5-3.5,9.2c0,3.7,1.2,6.8,3.5,9.1
			c2.3,2.4,5.3,3.5,9,3.5c3.7,0,6.7-1.2,9.1-3.7C237.8,31,239,27.9,239,24.1"/>
		<path d="M33,85.8c0,4.5-1.8,8-5.4,10.6c-3.3,2.4-7.3,3.7-12,3.7c-2.7,0-5.4-0.6-8.1-1.7c-1.7-0.6-4-1.9-7-3.8l4.6-8.8
			c3.2,2.8,6.6,4.2,10.3,4.2c1.7,0,3.2-0.3,4.4-0.9c1.3-0.6,1.9-1.5,1.9-2.6c0-1-0.2-1.8-0.7-2.2c-0.6-0.6-1.9-1.3-3.9-2.1
			c-1.4-0.5-2.6-1-3.7-1.4c-1.1-0.4-2-0.8-2.8-1.2C4.9,77.1,2,72.9,2,67.1c0-4.2,1.5-7.6,4.6-10.2c2.9-2.5,6.4-3.7,10.4-3.7
			c4.6,0,9.2,1.6,14,4.7l-4.5,8.6C24,64.1,21.1,63,17.8,63c-2.9,0-4.4,1.3-4.4,3.8c0,1.1,0.6,1.9,1.7,2.6c0.5,0.3,1.6,0.8,3.3,1.4
			l4.7,1.9C29.7,75.3,33,79.7,33,85.8"/>
		<rect x="35.5" y="54.8" width="11.4" height="43.7"/>
		<path d="M82.2,85.8c0,4.5-1.8,8-5.4,10.6c-3.3,2.4-7.3,3.7-12,3.7c-2.7,0-5.4-0.6-8.1-1.7c-1.7-0.6-4-1.9-7-3.8l4.6-8.8
			c3.2,2.8,6.6,4.2,10.3,4.2c1.7,0,3.2-0.3,4.4-0.9c1.3-0.6,1.9-1.5,1.9-2.6c0-1-0.2-1.8-0.7-2.2c-0.6-0.6-1.9-1.3-3.9-2.1
			c-1.4-0.5-2.6-1-3.7-1.4c-1.1-0.4-2-0.8-2.8-1.2c-5.7-2.6-8.6-6.8-8.6-12.6c0-4.2,1.5-7.6,4.6-10.2c2.9-2.5,6.4-3.7,10.4-3.7
			c4.6,0,9.2,1.6,14,4.7l-4.5,8.6C73.2,64.1,70.3,63,67,63c-2.9,0-4.4,1.3-4.4,3.8c0,1.1,0.6,1.9,1.7,2.6c0.5,0.3,1.6,0.8,3.3,1.4
			l4.7,1.9C78.9,75.3,82.2,79.7,82.2,85.8"/>
		<path d="M115.1,85.8c0,4.5-1.8,8-5.4,10.6c-3.3,2.4-7.3,3.7-12,3.7c-2.7,0-5.4-0.6-8.1-1.7c-1.7-0.6-4-1.9-7-3.8l4.6-8.8
			c3.2,2.8,6.6,4.2,10.3,4.2c1.7,0,3.2-0.3,4.4-0.9c1.3-0.6,1.9-1.5,1.9-2.6c0-1-0.2-1.8-0.7-2.2c-0.6-0.6-1.9-1.3-3.9-2.1
			c-1.4-0.5-2.6-1-3.7-1.4c-1.1-0.4-2-0.8-2.8-1.2c-5.7-2.6-8.6-6.8-8.6-12.6c0-4.2,1.5-7.6,4.6-10.2c2.9-2.5,6.4-3.7,10.4-3.7
			c4.6,0,9.2,1.6,14,4.7l-4.4,8.6c-2.5-2.3-5.5-3.5-8.8-3.5c-2.9,0-4.4,1.3-4.4,3.8c0,1.1,0.6,1.9,1.7,2.6c0.5,0.3,1.6,0.8,3.3,1.4
			l4.7,1.9C111.7,75.3,115.1,79.7,115.1,85.8"/>
		<path d="M164.5,76.2c0,7-2.3,12.7-7,17.3c-4.6,4.4-10.3,6.6-17.1,6.6c-7,0-12.8-2.2-17.3-6.7c-4.5-4.4-6.8-10-6.8-16.8
			c0-6.8,2.4-12.5,7.1-16.9c4.6-4.3,10.3-6.4,17.1-6.4c6.8,0,12.5,2.2,17.2,6.7C162.2,64.2,164.5,69.7,164.5,76.2 M152.9,76.4
			c0-3.5-1.2-6.5-3.6-8.9s-5.4-3.6-9-3.6c-3.6,0-6.6,1.2-9,3.7c-2.4,2.4-3.5,5.5-3.5,9.2c0,3.7,1.2,6.8,3.5,9.1
			c2.3,2.4,5.3,3.5,9,3.5c3.7,0,6.7-1.2,9.1-3.7C151.8,83.3,152.9,80.2,152.9,76.4"/>
	</g>
</g>
</svg>
