<?xml version="1.0" encoding="utf-8"?>
<!-- Generator: Adobe Illustrator 21.1.0, SVG Export Plug-In . SVG Version: 6.00 Build 0)  -->
<svg version="1.0" id="Layer_1" xmlns="http://www.w3.org/2000/svg" xmlns:xlink="http://www.w3.org/1999/xlink" x="0px" y="0px"
	 viewBox="0 0 250 80" enable-background="new 0 0 250 80" xml:space="preserve">
<rect x="11.3" y="40.6" fill="none" width="206.8" height="26.7"/>
<g enable-background="new    ">
	<path d="M27.8,60.2h-1.6V57c-1.7,2.2-3.7,3.3-6.1,3.3c-2.2,0-4-0.8-5.5-2.4c-1.5-1.6-2.3-3.5-2.3-5.7c0-2.3,0.7-4.2,2.2-5.7
		c1.5-1.6,3.3-2.3,5.5-2.3c2.4,0,4.4,1.1,6.2,3.2v-2.9h1.6V60.2z M26.3,51.9c0-1.8-0.6-3.4-1.8-4.5c-1.2-1.2-2.6-1.7-4.4-1.7
		c-1.8,0-3.3,0.6-4.5,1.8c-0.6,0.6-1,1.3-1.3,2.1c-0.3,0.8-0.4,1.7-0.4,2.6c0,1.8,0.6,3.4,1.8,4.7c1.2,1.3,2.7,1.9,4.5,1.9
		c1.7,0,3.1-0.6,4.3-1.8C25.7,55.6,26.3,53.9,26.3,51.9z"/>
	<path d="M34.2,60.2h-1.6V40.6h1.6V60.2z"/>
	<path d="M54.5,52.3c0,2.4-0.7,4.4-2.2,5.9c-1.4,1.5-3.2,2.3-5.4,2.3c-2.5,0-4.5-1-6.2-2.9v2.6H39V40.6h1.6v6.6
		c1.7-2.1,3.7-3.2,6.1-3.2c2.3,0,4.2,0.8,5.7,2.4C53.8,47.9,54.5,49.9,54.5,52.3z M52.9,52.3c0-1.9-0.6-3.5-1.7-4.8
		c-1.2-1.3-2.7-2-4.5-2c-1.8,0-3.3,0.6-4.4,1.8c-1.2,1.3-1.8,3-1.8,5.1c0,1.9,0.6,3.5,1.9,4.7c1.2,1.2,2.7,1.8,4.5,1.8
		c1.7,0,3.2-0.6,4.3-1.9C52.4,55.8,52.9,54.2,52.9,52.3z"/>
	<path d="M72.4,52.3H59.1c0,1.9,0.6,3.5,1.7,4.7c1.1,1.3,2.6,1.9,4.4,1.9c1.2,0,2.3-0.3,3.4-1.1c1-0.7,1.7-1.5,2.2-2.5l1.2,0.8
		c-0.5,0.9-1.2,1.7-1.9,2.4c-1.4,1.2-3,1.9-4.9,1.9c-2.3,0-4.2-0.8-5.6-2.5c-1.3-1.6-2-3.5-2-5.8c0-2.2,0.7-4.1,2.1-5.6
		c1.4-1.6,3.3-2.4,5.6-2.4c1.9,0,3.6,0.7,5.1,2.2c1.4,1.4,2.1,3.1,2.1,5.1V52.3z M71,50.9c-0.2-1.5-0.8-2.8-1.8-3.8
		c-1.1-1.1-2.4-1.6-4.1-1.6c-1.7,0-3,0.5-4.1,1.6c-0.9,1-1.5,2.2-1.8,3.7H71z"/>
	<path d="M82.8,46.2c-0.4-0.3-0.9-0.5-1.5-0.5c-1.1,0-1.9,0.5-2.5,1.4c-0.5,0.8-0.8,1.6-0.8,2.5v10.6h-1.6V44.5H78v1.8
		c0.9-1.4,2.2-2.1,3.9-2.1c0.8,0,1.4,0.1,1.9,0.4L82.8,46.2z"/>
	<path d="M91.5,46h-2.7v14.2h-1.6V46h-1.8v-1.5h1.8v-3.9h1.6v3.9h2.7V46z"/>
	<path d="M109.6,52.3c0,2.3-0.8,4.2-2.4,5.8c-1.6,1.6-3.5,2.4-5.7,2.4c-2.2,0-4.1-0.8-5.7-2.4c-1.6-1.6-2.4-3.5-2.4-5.7
		c0-2.3,0.8-4.2,2.3-5.8c1.6-1.6,3.5-2.4,5.7-2.4c2.3,0,4.2,0.8,5.7,2.4C108.8,48.1,109.6,50.1,109.6,52.3z M108.1,52.3
		c0-1.8-0.6-3.4-1.9-4.7c-1.3-1.3-2.8-2-4.6-2c-1.8,0-3.4,0.6-4.7,1.9c-1.3,1.3-1.9,2.9-1.9,4.8c0,1.7,0.6,3.2,1.9,4.6
		c1.3,1.3,2.9,2,4.6,2c1.9,0,3.4-0.7,4.7-2C107.5,55.7,108.1,54.2,108.1,52.3z"/>
</g>
<g enable-background="new    ">
	<path d="M131.1,55.8c0,1.5-0.5,2.7-1.6,3.6c-1,0.8-2.2,1.3-3.7,1.3c-2.4,0-4.1-1.1-5-3.2l2.1-1.1c0.6,1.4,1.6,2,2.9,2
		c0.9,0,1.6-0.2,2.1-0.6c0.5-0.4,0.7-1,0.7-1.6c0-1.1-0.6-1.9-1.8-2.4c-0.3-0.1-0.6-0.3-1-0.5c-0.4-0.2-0.9-0.4-1.5-0.7
		c-1.9-0.9-2.8-2.3-2.8-4.2c0-1.2,0.4-2.3,1.3-3.1c0.9-0.8,2-1.2,3.4-1.2c1,0,1.9,0.3,2.7,0.8c0.8,0.5,1.3,1.3,1.7,2.3l-2.1,0.9
		c-0.5-1.2-1.3-1.8-2.4-1.8c-0.6,0-1.1,0.2-1.5,0.6c-0.4,0.4-0.6,0.9-0.6,1.4c0,0.6,0.2,1.2,0.7,1.6c0.4,0.3,0.9,0.6,1.7,1l1.5,0.7
		C130,52.4,131.1,53.9,131.1,55.8z"/>
	<path d="M137.8,41.2c0,0.4-0.2,0.9-0.5,1.2c-0.3,0.3-0.8,0.5-1.2,0.5s-0.9-0.2-1.2-0.5c-0.3-0.4-0.5-0.8-0.5-1.2
		c0-0.4,0.2-0.9,0.5-1.2c0.3-0.3,0.8-0.5,1.2-0.5s0.9,0.2,1.2,0.5C137.7,40.4,137.8,40.8,137.8,41.2z M137.3,60.2h-2.5V44.5h2.5
		V60.2z"/>
	<path d="M150.9,55.8c0,1.5-0.5,2.7-1.6,3.6c-1,0.8-2.2,1.3-3.7,1.3c-2.4,0-4.1-1.1-5-3.2l2.1-1.1c0.6,1.4,1.6,2,2.9,2
		c0.9,0,1.6-0.2,2.1-0.6c0.5-0.4,0.7-1,0.7-1.6c0-1.1-0.6-1.9-1.8-2.4c-0.3-0.1-0.6-0.3-1-0.5c-0.4-0.2-0.9-0.4-1.5-0.7
		c-1.9-0.9-2.8-2.3-2.8-4.2c0-1.2,0.4-2.3,1.3-3.1c0.9-0.8,2-1.2,3.4-1.2c1,0,1.9,0.3,2.7,0.8c0.8,0.5,1.3,1.3,1.7,2.3l-2.1,0.9
		c-0.5-1.2-1.3-1.8-2.4-1.8c-0.6,0-1.1,0.2-1.5,0.6c-0.4,0.4-0.6,0.9-0.6,1.4c0,0.6,0.2,1.2,0.7,1.6c0.4,0.3,0.9,0.6,1.7,1l1.5,0.7
		C149.9,52.4,150.9,53.9,150.9,55.8z"/>
	<path d="M163.4,55.8c0,1.5-0.5,2.7-1.6,3.6c-1,0.8-2.2,1.3-3.7,1.3c-2.4,0-4.1-1.1-5-3.2l2.1-1.1c0.6,1.4,1.6,2,2.9,2
		c0.9,0,1.6-0.2,2.1-0.6c0.5-0.4,0.7-1,0.7-1.6c0-1.1-0.6-1.9-1.8-2.4c-0.3-0.1-0.6-0.3-1-0.5c-0.4-0.2-0.9-0.4-1.5-0.7
		c-1.9-0.9-2.8-2.3-2.8-4.2c0-1.2,0.4-2.3,1.3-3.1c0.9-0.8,2-1.2,3.4-1.2c1,0,1.9,0.3,2.7,0.8c0.8,0.5,1.3,1.3,1.7,2.3l-2.1,0.9
		c-0.5-1.2-1.3-1.8-2.4-1.8c-0.6,0-1.1,0.2-1.5,0.6c-0.4,0.4-0.6,0.9-0.6,1.4c0,0.6,0.2,1.2,0.7,1.6c0.4,0.3,0.9,0.6,1.7,1l1.5,0.7
		C162.4,52.4,163.4,53.9,163.4,55.8z"/>
	<path d="M183,52.3c0,2.3-0.8,4.2-2.4,5.9c-1.7,1.6-3.6,2.4-5.9,2.4c-2.3,0-4.3-0.8-5.9-2.4c-1.7-1.6-2.5-3.6-2.5-5.9
		c0-2.3,0.8-4.2,2.4-5.9c1.6-1.6,3.6-2.4,5.9-2.4c2.4,0,4.3,0.8,6,2.3C182.2,47.9,183,49.9,183,52.3z M180.4,52.3
		c0-1.7-0.5-3.1-1.6-4.2c-1.1-1.2-2.5-1.7-4.3-1.7c-1.7,0-3.1,0.6-4.2,1.8c-1.1,1.1-1.6,2.6-1.6,4.2c0,1.6,0.6,3,1.7,4.1
		c1.1,1.1,2.5,1.7,4.1,1.7c1.6,0,3-0.6,4.1-1.7C179.9,55.5,180.4,54,180.4,52.3z"/>
</g>
<rect x="122.3" y="66.2" fill="none" width="122.7" height="14.8"/>
<g enable-background="new    ">
	<path d="M126.2,67h-2.3v1.8h2.2v0.8h-2.2v3.2h-0.9v-6.5h3.2V67z"/>
	<path d="M128.1,72.7h-0.9v-6.5h0.9V72.7z"/>
	<path d="M135.3,73l-4.8-4.9v4.7h-0.8V66l4.8,4.9v-4.8h0.8V73z"/>
	<path d="M140.1,72.7h-3.3v-6.5h3.3V67h-2.4v1.8h2.4v0.8h-2.4v2.4h2.4V72.7z"/>
	<path d="M149,72.7h-1l-0.7-1.5h-2.9l-0.7,1.5h-1l3.1-6.7L149,72.7z M147,70.4l-1.1-2.5l-1.1,2.5H147z"/>
	<path d="M154,72.7h-1l-2.2-3.2v3.2h-0.9v-6.5h1.9c0.5,0,0.9,0.2,1.3,0.5c0.4,0.4,0.5,0.8,0.5,1.3c0,0.5-0.1,0.9-0.4,1.3
		c-0.3,0.3-0.7,0.5-1.2,0.6L154,72.7z M152.6,68c0-0.3-0.1-0.6-0.3-0.8c-0.2-0.2-0.5-0.3-0.8-0.3h-0.8v2.2h0.7
		C152.2,69.2,152.6,68.8,152.6,68z"/>
	<path d="M157.6,67h-1.4v5.7h-0.9V67h-1.4v-0.8h3.7V67z"/>
	<path d="M164.2,68.1c0,0.5-0.2,1-0.5,1.3c-0.3,0.4-0.8,0.6-1.3,0.6h-1.1v2.8h-0.9v-6.5h1.6c0.6,0,1.1,0.2,1.4,0.5
		C164,67,164.2,67.5,164.2,68.1z M163.3,68c0-0.3-0.1-0.6-0.4-0.8c-0.2-0.2-0.5-0.3-0.8-0.3h-0.7v2.2h0.6c0.4,0,0.7-0.1,0.9-0.3
		C163.2,68.7,163.3,68.4,163.3,68z"/>
	<path d="M170,72.7h-0.9v-3.2h-3v3.2h-0.9v-6.5h0.9v2.6h3v-2.6h0.9V72.7z"/>
	<path d="M178,69.5c0,0.9-0.3,1.7-1,2.4c-0.6,0.6-1.5,1-2.4,1c-1,0-1.8-0.3-2.4-1c-0.6-0.6-1-1.5-1-2.4c0-1,0.3-1.8,1-2.4
		c0.6-0.6,1.4-1,2.4-1c1,0,1.8,0.3,2.5,1C177.6,67.7,178,68.5,178,69.5z M177,69.5c0-0.7-0.2-1.3-0.7-1.8c-0.5-0.5-1-0.7-1.8-0.7
		c-0.7,0-1.3,0.2-1.8,0.7c-0.5,0.5-0.7,1.1-0.7,1.8c0,0.7,0.2,1.3,0.7,1.8c0.5,0.5,1,0.7,1.8,0.7c0.8,0,1.4-0.2,1.8-0.7
		C176.8,70.8,177,70.2,177,69.5z"/>
	<path d="M181.9,67h-1.4v5.7h-0.9V67h-1.4v-0.8h3.7V67z"/>
	<path d="M188.9,69.5c0,0.9-0.3,1.7-1,2.4c-0.6,0.6-1.5,1-2.4,1c-1,0-1.8-0.3-2.4-1c-0.6-0.6-1-1.5-1-2.4c0-1,0.3-1.8,1-2.4
		c0.6-0.6,1.4-1,2.4-1c1,0,1.8,0.3,2.5,1C188.6,67.7,188.9,68.5,188.9,69.5z M188,69.5c0-0.7-0.2-1.3-0.7-1.8
		c-0.5-0.5-1-0.7-1.8-0.7c-0.7,0-1.3,0.2-1.8,0.7c-0.5,0.5-0.7,1.1-0.7,1.8c0,0.7,0.2,1.3,0.7,1.8c0.5,0.5,1,0.7,1.8,0.7
		c0.8,0,1.4-0.2,1.8-0.7C187.8,70.8,188,70.2,188,69.5z"/>
	<path d="M196,69.9c0,0.9-0.3,1.6-0.9,2.1c-0.6,0.5-1.2,0.8-2,0.8c-0.9,0-1.7-0.3-2.4-1c-0.7-0.7-1-1.5-1-2.5c0-0.9,0.3-1.7,0.9-2.4
		c0.6-0.7,1.4-1,2.3-1c0.6,0,1.2,0.1,1.7,0.4c0.3,0.2,0.7,0.5,1.1,0.9l-0.7,0.6c-0.3-0.3-0.5-0.5-0.6-0.6c-0.4-0.3-0.9-0.4-1.5-0.4
		c-0.7,0-1.2,0.3-1.7,0.8c-0.4,0.5-0.6,1.1-0.6,1.8c0,0.8,0.2,1.4,0.7,1.9c0.5,0.5,1.1,0.7,1.8,0.7c0.6,0,1.1-0.2,1.5-0.6
		c0.4-0.4,0.6-0.8,0.6-1.3h-1.6v-0.8h2.4V69.9z"/>
	<path d="M201.3,72.7h-1l-2.2-3.2v3.2h-0.9v-6.5h1.9c0.5,0,0.9,0.2,1.3,0.5c0.4,0.4,0.5,0.8,0.5,1.3c0,0.5-0.1,0.9-0.4,1.3
		c-0.3,0.3-0.7,0.5-1.2,0.6L201.3,72.7z M200,68c0-0.3-0.1-0.6-0.3-0.8c-0.2-0.2-0.5-0.3-0.8-0.3H198v2.2h0.7
		C199.6,69.2,200,68.8,200,68z"/>
	<path d="M207.6,72.7h-1l-0.7-1.5h-2.9l-0.7,1.5h-1l3.1-6.7L207.6,72.7z M205.6,70.4l-1.1-2.5l-1.1,2.5H205.6z"/>
	<path d="M212.1,68.1c0,0.5-0.2,1-0.5,1.3c-0.3,0.4-0.8,0.6-1.3,0.6h-1.1v2.8h-0.9v-6.5h1.6c0.6,0,1.1,0.2,1.4,0.5
		C211.9,67,212.1,67.5,212.1,68.1z M211.2,68c0-0.3-0.1-0.6-0.4-0.8c-0.2-0.2-0.5-0.3-0.8-0.3h-0.7v2.2h0.6c0.4,0,0.7-0.1,0.9-0.3
		C211.1,68.7,211.2,68.4,211.2,68z"/>
	<path d="M217.9,72.7H217v-3.2h-3v3.2h-0.9v-6.5h0.9v2.6h3v-2.6h0.9V72.7z"/>
	<path d="M223.7,66.2l-2.1,3.7v2.8h-0.9v-2.8l-2.1-3.7h1l1.5,2.8l1.5-2.8H223.7z"/>
</g>
<line fill="none" stroke="#BE1E2D" stroke-width="2" stroke-miterlimit="10" x1="116.8" y1="27.4" x2="116.8" y2="73.6"/>
<rect x="0.1" fill="#FFDD00" width="249.8" height="4.6"/>
</svg>
