<?xml version="1.0" encoding="utf-8"?>
<!-- Generator: Adobe Illustrator 21.1.0, SVG Export Plug-In . SVG Version: 6.00 Build 0)  -->
<svg version="1.0" id="Layer_1" xmlns="http://www.w3.org/2000/svg" xmlns:xlink="http://www.w3.org/1999/xlink" x="0px" y="0px"
	 viewBox="0 0 148 41" enable-background="new 0 0 148 41" xml:space="preserve">
<g>
	<path d="M19.4,28.3h-1.2v-2.4c-1.2,1.6-2.7,2.4-4.5,2.4c-1.6,0-2.9-0.6-4-1.8C8.6,25.4,8,24,8,22.4c0-1.7,0.5-3.1,1.6-4.2
		c1.1-1.1,2.4-1.7,4-1.7c1.7,0,3.3,0.8,4.5,2.4v-2.1h1.2V28.3z M18.3,22.2c0-1.4-0.4-2.5-1.3-3.3c-0.9-0.9-1.9-1.3-3.2-1.3
		c-1.3,0-2.4,0.5-3.3,1.4c-0.4,0.5-0.8,1-1,1.6c-0.2,0.6-0.3,1.2-0.3,1.9c0,1.4,0.4,2.5,1.3,3.4c0.9,0.9,2,1.4,3.3,1.4
		c1.2,0,2.3-0.4,3.2-1.3C17.8,24.9,18.3,23.7,18.3,22.2z"/>
	<path d="M24.3,28.3h-1.2V13.9h1.2V28.3z"/>
	<path d="M39.5,22.5c0,1.8-0.5,3.2-1.6,4.4c-1.1,1.1-2.4,1.7-4,1.7c-1.8,0-3.3-0.7-4.6-2.1v1.9h-1.2V13.9h1.2v4.9
		c1.2-1.6,2.7-2.3,4.5-2.3c1.7,0,3.1,0.6,4.2,1.8C39,19.3,39.5,20.7,39.5,22.5z M38.3,22.5c0-1.4-0.4-2.6-1.2-3.5
		c-0.9-1-2-1.5-3.3-1.5c-1.3,0-2.4,0.4-3.3,1.3c-0.9,0.9-1.3,2.2-1.3,3.8c0,1.4,0.5,2.5,1.4,3.5c0.9,0.9,2,1.3,3.3,1.3
		c1.3,0,2.3-0.5,3.2-1.4C37.9,25,38.3,23.9,38.3,22.5z"/>
	<path d="M52.8,22.5H43c0,1.4,0.4,2.5,1.3,3.5c0.8,0.9,1.9,1.4,3.2,1.4c0.9,0,1.7-0.3,2.5-0.8c0.7-0.5,1.3-1.1,1.6-1.8l0.9,0.6
		c-0.4,0.7-0.9,1.3-1.4,1.8c-1,0.9-2.2,1.4-3.6,1.4c-1.7,0-3.1-0.6-4.1-1.9c-1-1.1-1.5-2.6-1.5-4.3c0-1.6,0.5-3,1.5-4.1
		c1.1-1.2,2.4-1.8,4.1-1.8c1.4,0,2.7,0.5,3.7,1.6c1,1,1.6,2.3,1.6,3.8V22.5z M51.8,21.5c-0.2-1.1-0.6-2.1-1.3-2.8
		c-0.8-0.8-1.8-1.2-3-1.2c-1.2,0-2.2,0.4-3,1.2c-0.7,0.7-1.1,1.6-1.3,2.7H51.8z"/>
	<path d="M60.7,18c-0.3-0.2-0.6-0.4-1.1-0.4c-0.8,0-1.4,0.3-1.8,1c-0.4,0.6-0.6,1.2-0.6,1.8v7.8h-1.2V16.7h1.2V18
		c0.6-1,1.6-1.5,2.8-1.5c0.6,0,1,0.1,1.4,0.3L60.7,18z"/>
	<path d="M67.2,17.9h-2v10.4H64V17.9h-1.3v-1.1H64v-2.9h1.2v2.9h2V17.9z"/>
	<path d="M80.8,22.5c0,1.7-0.6,3.1-1.7,4.3c-1.2,1.2-2.5,1.7-4.2,1.7c-1.6,0-3-0.6-4.2-1.8c-1.2-1.2-1.8-2.6-1.8-4.2
		c0-1.7,0.6-3.1,1.7-4.3c1.1-1.2,2.5-1.8,4.2-1.8c1.7,0,3.1,0.6,4.2,1.8C80.2,19.4,80.8,20.8,80.8,22.5z M79.7,22.5
		c0-1.3-0.5-2.5-1.4-3.5c-0.9-1-2.1-1.4-3.4-1.4c-1.4,0-2.5,0.5-3.5,1.4c-0.9,1-1.4,2.1-1.4,3.5c0,1.3,0.5,2.4,1.4,3.4
		c1,1,2.1,1.5,3.4,1.5c1.4,0,2.5-0.5,3.5-1.4C79.2,25,79.7,23.9,79.7,22.5z"/>
	<path d="M95.9,25.1c0,1.1-0.4,2-1.2,2.6c-0.8,0.6-1.7,0.9-2.7,0.9c-1.8,0-3-0.8-3.7-2.3l1.6-0.8c0.5,1,1.2,1.5,2.1,1.5
		c0.7,0,1.2-0.2,1.5-0.5c0.4-0.3,0.5-0.7,0.5-1.2c0-0.8-0.4-1.4-1.3-1.8c-0.2-0.1-0.4-0.2-0.7-0.3c-0.3-0.1-0.7-0.3-1.1-0.5
		c-1.4-0.6-2.1-1.7-2.1-3c0-0.9,0.3-1.7,1-2.3c0.7-0.6,1.5-0.9,2.5-0.9c0.7,0,1.4,0.2,2,0.6c0.6,0.4,1,0.9,1.2,1.7L94,19.4
		c-0.4-0.9-0.9-1.3-1.8-1.3c-0.5,0-0.8,0.1-1.1,0.4c-0.3,0.3-0.5,0.6-0.5,1c0,0.5,0.2,0.8,0.5,1.1c0.3,0.2,0.7,0.5,1.2,0.7l1.1,0.5
		C95.2,22.6,95.9,23.7,95.9,25.1z"/>
	<path d="M101.1,14.4c0,0.3-0.1,0.6-0.4,0.9c-0.3,0.3-0.6,0.4-0.9,0.4c-0.4,0-0.7-0.1-0.9-0.4c-0.3-0.3-0.4-0.6-0.4-0.9
		s0.1-0.6,0.4-0.9c0.3-0.3,0.6-0.4,0.9-0.4c0.4,0,0.7,0.1,0.9,0.4C101,13.7,101.1,14,101.1,14.4z M100.7,28.3h-1.9V16.7h1.9V28.3z"
		/>
	<path d="M110.9,25.1c0,1.1-0.4,2-1.2,2.6c-0.8,0.6-1.7,0.9-2.7,0.9c-1.8,0-3-0.8-3.7-2.3l1.6-0.8c0.5,1,1.2,1.5,2.1,1.5
		c0.7,0,1.2-0.2,1.5-0.5c0.4-0.3,0.5-0.7,0.5-1.2c0-0.8-0.4-1.4-1.3-1.8c-0.2-0.1-0.4-0.2-0.7-0.3c-0.3-0.1-0.7-0.3-1.1-0.5
		c-1.4-0.6-2.1-1.7-2.1-3c0-0.9,0.3-1.7,1-2.3c0.7-0.6,1.5-0.9,2.5-0.9c0.7,0,1.4,0.2,2,0.6c0.6,0.4,1,0.9,1.2,1.7l-1.5,0.7
		c-0.4-0.9-0.9-1.3-1.8-1.3c-0.5,0-0.8,0.1-1.1,0.4c-0.3,0.3-0.5,0.6-0.5,1c0,0.5,0.2,0.8,0.5,1.1c0.3,0.2,0.7,0.5,1.2,0.7l1.1,0.5
		C110.2,22.6,110.9,23.7,110.9,25.1z"/>
	<path d="M120.3,25.1c0,1.1-0.4,2-1.2,2.6c-0.8,0.6-1.7,0.9-2.7,0.9c-1.8,0-3-0.8-3.7-2.3l1.6-0.8c0.5,1,1.2,1.5,2.1,1.5
		c0.7,0,1.2-0.2,1.5-0.5c0.4-0.3,0.5-0.7,0.5-1.2c0-0.8-0.4-1.4-1.3-1.8c-0.2-0.1-0.4-0.2-0.7-0.3c-0.3-0.1-0.7-0.3-1.1-0.5
		c-1.4-0.6-2.1-1.7-2.1-3c0-0.9,0.3-1.7,1-2.3c0.7-0.6,1.5-0.9,2.5-0.9c0.7,0,1.4,0.2,2,0.6c0.6,0.4,1,0.9,1.2,1.7l-1.5,0.7
		c-0.4-0.9-0.9-1.3-1.8-1.3c-0.5,0-0.8,0.1-1.1,0.4c-0.3,0.3-0.5,0.6-0.5,1c0,0.5,0.2,0.8,0.5,1.1c0.3,0.2,0.7,0.5,1.2,0.7l1.1,0.5
		C119.5,22.6,120.3,23.7,120.3,25.1z"/>
	<path d="M134.9,22.5c0,1.7-0.6,3.1-1.8,4.3c-1.2,1.2-2.7,1.8-4.3,1.8c-1.7,0-3.2-0.6-4.4-1.8c-1.2-1.2-1.8-2.6-1.8-4.3
		c0-1.7,0.6-3.1,1.8-4.3c1.2-1.2,2.6-1.8,4.3-1.8c1.7,0,3.2,0.6,4.4,1.7C134.3,19.3,134.9,20.7,134.9,22.5z M133,22.5
		c0-1.2-0.4-2.3-1.2-3c-0.8-0.9-1.8-1.3-3.1-1.3c-1.2,0-2.3,0.4-3,1.3c-0.8,0.8-1.2,1.9-1.2,3.1c0,1.2,0.4,2.2,1.2,3
		c0.8,0.8,1.8,1.3,3,1.3c1.2,0,2.2-0.4,3-1.2C132.6,24.8,133,23.8,133,22.5z"/>
</g>
<line fill="none" stroke="#BE1E2D" stroke-width="1.4693" stroke-miterlimit="10" x1="84.8" y1="4.2" x2="84.8" y2="38.1"/>
</svg>
